<svg xmlns="http://www.w3.org/2000/svg" xmlns:xlink="http://www.w3.org/1999/xlink" width="36" height="20" viewBox="0 0 36 20" fill="none">
<rect width="36" height="20" fill="none"/>
<g clip-path="url(#clip0_0_1)">
<path d="M18 70C32.4966 70 44.25 58.2466 44.25 43.75C44.25 38.0417 42.3786 32.8038 39.268 28.5141C39.2122 28.4113 39.2034 28.2964 39.14 28.198L21.64 1.94797C20.8284 0.730625 19.4613 -3.78962e-07 18 -5.06708e-07C16.5388 -6.34455e-07 15.1716 0.730625 14.36 1.94797L-3.13999 28.198C-3.20453 28.2964 -3.21218 28.4112 -3.26796 28.5141C-6.37859 32.8037 -8.25 38.0417 -8.25 43.75C-8.25 58.2466 3.50344 70 18 70ZM18 35C22.8322 35 9.70515 36.1253 9.70515 40.9574C9.70515 45.7896 23.5769 43.75 18.7447 43.75C13.9125 43.75 33.6383 42.8109 33.6383 37.9787C33.6383 33.1465 13.1678 35 18 35Z" fill="white"/>
</g>
<defs>
<clipPath id="clip0_0_1">
<rect width="70" height="70" fill="white" transform="translate(53 70) rotate(-180)"/>
</clipPath>
</defs>
</svg>