<svg xmlns="http://www.w3.org/2000/svg" width="22" height="21" viewBox="0 0 22 21" fill="none">
<path d="M11.6024 9.9708L9.12563 12.4699C8.81474 12.7836 8.6593 12.9405 8.54598 13.0895C7.76345 14.1184 7.76345 15.5495 8.54598 16.5785C8.6593 16.7275 8.81474 16.8843 9.12563 17.198C9.43655 17.5116 9.59195 17.6685 9.73965 17.7828C10.7595 18.5724 12.1778 18.5724 13.1976 17.7828C13.3452 17.6685 13.5007 17.5116 13.8116 17.198L17.0247 13.9559C18.2707 12.6987 18.8937 12.0701 19.2341 11.3961C19.9219 10.0339 19.9219 8.42173 19.2341 7.05952C18.8937 6.38552 18.2707 5.75692 17.0247 4.49975C15.7788 3.24257 15.1558 2.61399 14.4878 2.27056C13.1377 1.57648 11.54 1.57648 10.1898 2.27056C9.52186 2.61399 8.89889 3.24257 7.65292 4.49975L4.38951 7.79251C3.68977 8.49854 3.3399 8.85159 3.10013 9.1987C1.96662 10.8397 1.96662 13.0195 3.10013 14.6605C3.3399 15.0076 3.68977 15.3605 4.38951 16.0666" stroke="#7B7B7B" stroke-width="2" stroke-linecap="round"/>
</svg>