<svg xmlns="http://www.w3.org/2000/svg" width="18" height="19" viewBox="0 0 18 19" fill="none">
<mask id="mask0_10_61" style="mask-type:luminance" maskUnits="userSpaceOnUse" x="0" y="0" width="17" height="19">
<path d="M0.441406 0.175171H16.7944V18.5076H0.441406V0.175171Z" fill="white"/>
</mask>
<g mask="url(#mask0_10_61)">
<path d="M1.22894 4.43989C1.30836 5.4983 1.49473 7.30942 1.91312 9.10987C2.20119 10.3513 2.59902 11.5892 3.14484 12.5632C3.95566 14.0109 5.08928 15.1617 6.15698 16.021C7.12736 16.8022 8.04341 17.3442 8.61963 17.6517C9.19312 17.346 10.1065 16.8057 11.0769 16.0254C12.1437 15.167 13.2791 14.0144 14.0926 12.5632C14.6358 11.591 15.0336 10.354 15.3208 9.11159C15.7382 7.31028 15.9255 5.4983 16.0049 4.43989C14.9631 3.96088 14.2246 3.32813 13.7046 2.67496C13.2283 2.07694 12.9321 1.46108 12.7502 0.934096H4.48725C4.27227 1.55611 3.89946 2.30173 3.25546 2.99578C2.75952 3.53258 2.09949 4.03994 1.22894 4.43989ZM1.17992 9.27694C0.713453 7.26409 0.527009 5.24946 0.459231 4.22749L0.441406 3.96003L0.690238 3.85605C1.57322 3.48897 2.22441 3.00201 2.70065 2.48749C3.34825 1.78899 3.68182 1.03535 3.8513 0.454158L3.93065 0.182251H13.3059L13.3862 0.454158C13.5334 0.958945 13.8045 1.59435 14.2933 2.20756C14.7847 2.82341 15.5027 3.42237 16.5436 3.85605L16.7925 3.96003L16.7746 4.22749C16.7069 5.24946 16.5196 7.26581 16.054 9.27866C15.7534 10.5806 15.3315 11.8852 14.7491 12.9275C13.8803 14.4783 12.6762 15.7029 11.5479 16.6102C10.4258 17.5131 9.36972 18.1112 8.79177 18.408L8.6187 18.4959L8.44749 18.408C7.86595 18.1094 6.80896 17.5096 5.68598 16.6058C4.55589 15.6967 3.35357 14.4738 2.48841 12.9275C1.90413 11.8834 1.48137 10.5779 1.17992 9.27694Z" fill="white"/>
</g>
<path d="M8.39844 3.49728H9.89574C11.4712 3.4039 11.8769 3.38843 12.1109 3.38843H12.3605C15.4646 3.38843 17.087 4.24318 17.087 5.85958C17.087 6.65218 16.7126 7.22736 15.9795 7.60031C15.4804 7.84894 15.1216 8.00448 14.1076 8.20643C15.1216 8.33074 15.5583 8.48628 16.1356 8.78161C17.0714 9.29434 17.5864 10.1491 17.5864 11.1439C17.5864 11.7188 17.3834 12.294 17.0246 12.7136C16.3228 13.5374 15.3398 13.8637 13.4213 13.8637H8.39844V13.646C8.88201 13.4441 9.02231 13.1954 9.02231 12.6202V4.74073C9.02231 4.16555 8.88201 3.91692 8.39844 3.71497V3.49728ZM11.565 8.01995H12.2826C13.9515 8.01995 14.7939 7.30498 14.7939 5.87505C14.7939 4.56973 13.9828 3.7926 12.6569 3.7926C11.8614 3.7926 11.565 4.04123 11.565 4.70951V8.01995ZM11.565 8.53297V12.6048C11.565 13.2421 11.8769 13.4753 12.7037 13.4753C13.1249 13.4753 13.4679 13.4131 13.7488 13.3043C14.5133 12.9777 15.0592 12.0141 15.0592 10.9574C15.0592 9.3565 14.1387 8.53297 12.3449 8.53297H11.565Z" fill="white"/>
<mask id="mask1_10_61" style="mask-type:luminance" maskUnits="userSpaceOnUse" x="6" y="3" width="3" height="3">
<path d="M6.0528 3.32037H8.35862V5.69328H6.0528V3.32037Z" fill="white"/>
</mask>
<g mask="url(#mask1_10_61)">
<path d="M6.43054 3.76469L6.45476 3.8348C6.4802 3.93247 6.51485 4.02672 6.54597 4.1221L6.56451 4.16693L6.56911 4.18877C6.57831 4.2094 6.58643 4.23124 6.59333 4.25308L6.6407 4.27492C6.69841 4.2853 6.75735 4.28645 6.81392 4.29561C6.90053 4.30714 6.98254 4.3393 7.068 4.35305C7.15345 4.36687 7.24811 4.38986 7.33587 4.41513C7.34515 4.4818 7.35205 4.54962 7.37052 4.61507C7.38899 4.6806 7.39596 4.76223 7.41673 4.83349C7.4375 4.90474 7.44678 4.97134 7.4595 5.0403L7.47215 5.07596C7.48142 5.13225 7.49414 5.18853 7.50449 5.24489C7.55933 5.27089 7.61245 5.29996 7.66384 5.33219C7.82096 5.42757 7.978 5.52296 8.14195 5.60574C8.20319 5.64019 8.26788 5.67127 8.33716 5.68731C8.40645 5.70342 8.48149 5.64942 8.54963 5.61949C8.6882 5.55518 8.81635 5.4724 8.95033 5.39886C9.01962 5.35632 9.0866 5.31042 9.15704 5.27132C9.18356 5.25499 9.20822 5.23623 9.231 5.21503C9.24142 5.14063 9.25601 5.06708 9.27485 4.99432C9.30489 4.87251 9.33608 4.7507 9.35685 4.6266L9.36375 4.59445C9.37533 4.54733 9.37878 4.50021 9.3915 4.45423L9.39495 4.42086C9.45036 4.39558 9.5116 4.38756 9.57162 4.37603C9.65248 4.35656 9.73449 4.34159 9.81535 4.31975C9.92618 4.29103 10.0417 4.28179 10.1537 4.25652C10.1721 4.17266 10.2056 4.09339 10.2275 4.00946C10.268 3.89681 10.2969 3.78195 10.3327 3.66816C10.3558 3.61875 10.3558 3.55551 10.3973 3.51756C10.4793 3.48426 10.5625 3.45211 10.6422 3.41072V3.3222C10.5255 3.3429 10.4054 3.34175 10.2888 3.36589C10.1721 3.39002 10.0324 3.38658 9.90655 3.41186C9.78063 3.43714 9.66635 3.42683 9.54855 3.44752C9.48386 3.44631 9.42039 3.46356 9.3557 3.46242L9.34298 3.47166L9.2471 3.47624C9.19866 3.48655 9.14899 3.48655 9.10163 3.49808C9.05426 3.50954 8.98497 3.50381 8.92726 3.51412C8.79558 3.52451 8.66161 3.52909 8.53115 3.55093C8.48149 3.55322 8.43297 3.55551 8.38446 3.56124C8.19507 3.55551 8.00683 3.52451 7.81859 3.51641C7.74125 3.5061 7.66154 3.50839 7.5865 3.4877C7.37404 3.47853 7.16495 3.43256 6.95134 3.42568C6.87745 3.4153 6.8035 3.41301 6.73076 3.3946C6.62798 3.38773 6.52635 3.37276 6.42356 3.36703C6.30813 3.3429 6.19033 3.33603 6.07368 3.33488L6.05865 3.39002C6.16144 3.45325 6.27579 3.49343 6.37857 3.55551C6.38892 3.62562 6.41321 3.69458 6.43054 3.76469Z" fill="white"/>
</g>
<mask id="mask2_10_61" style="mask-type:luminance" maskUnits="userSpaceOnUse" x="3" y="4" width="6" height="10">
<path d="M3.67969 4.20837H8.35789V13.9211H3.67969V4.20837Z" fill="white"/>
</mask>
<g mask="url(#mask2_10_61)">
<path d="M12.7716 9.48904C12.6815 9.41428 12.6204 9.31087 12.5291 9.23732C12.4321 9.13506 12.3316 9.03509 12.2289 8.93856C12.148 8.85234 12.0614 8.76956 11.9805 8.68341C11.9967 8.63973 12.0302 8.60528 12.051 8.56389C12.1006 8.4708 12.1676 8.38687 12.2161 8.29385C12.2647 8.20075 12.3212 8.1421 12.3617 8.05939C12.4021 7.97661 12.4563 7.8939 12.5141 7.81806C12.5776 7.72382 12.6353 7.62615 12.6977 7.53076C12.7531 7.45714 12.7936 7.37443 12.8513 7.30203C12.909 7.22963 12.9714 7.12394 13.0361 7.03886L13.0326 7.02046C12.9564 6.98945 12.8905 6.93775 12.8132 6.90903C12.6619 6.82625 12.5026 6.75958 12.3478 6.6826C12.1699 6.59409 11.9852 6.52283 11.8131 6.42515C11.7403 6.39186 11.6676 6.35848 11.5914 6.32977C11.5914 6.49985 11.6191 6.66878 11.6133 6.83892C11.5823 6.80441 11.5539 6.76803 11.5279 6.72972C11.4701 6.64006 11.3893 6.56766 11.3281 6.48037C11.2669 6.393 11.1883 6.30449 11.1306 6.20796C11.0477 6.10455 10.9707 5.99692 10.8997 5.88506C10.8304 5.78968 10.7553 5.69773 10.6894 5.60005C10.6294 5.52414 10.5647 5.45525 10.5116 5.37591L10.5463 5.35872L10.5763 5.35636L10.5878 5.34834C10.6199 5.34311 10.6514 5.33581 10.6825 5.3265C10.7484 5.31046 10.8154 5.30236 10.8788 5.28052C10.9805 5.26097 11.0809 5.23111 11.1837 5.21622C11.2865 5.20125 11.3674 5.17139 11.4597 5.15298L11.4909 5.14725C11.5341 5.13558 11.578 5.12749 11.6226 5.12312C11.6283 5.2725 11.6572 5.42074 11.6595 5.57126C11.678 5.75516 11.6953 5.93791 11.7069 6.12181C11.7254 6.15626 11.7427 6.19421 11.7773 6.21369C11.812 6.23324 11.864 6.23553 11.9066 6.24935C11.9494 6.2631 12.021 6.27692 12.0707 6.30907L12.1226 6.31136C12.1464 6.2931 12.1714 6.27663 12.1977 6.26195L12.2092 6.22751C12.1954 6.17351 12.1908 6.11716 12.1803 6.06316C12.155 5.9609 12.155 5.85513 12.1307 5.75287C12.123 5.71957 12.1191 5.68591 12.1191 5.65175L12.1099 5.63908C12.1018 5.51154 12.0741 5.38629 12.0614 5.25868C12.0555 5.19223 12.0455 5.12634 12.0313 5.06103C12.0233 4.9852 12.0152 4.90936 12.0025 4.83467C11.9921 4.78755 11.9517 4.75991 11.9148 4.73348C11.8033 4.64168 11.6994 4.54214 11.6029 4.43472C11.5279 4.36691 11.462 4.29107 11.3893 4.22096L11.32 4.23357C11.193 4.26808 11.0602 4.27267 10.9366 4.31864L10.9077 4.32322C10.7311 4.37722 10.5497 4.41632 10.3719 4.46802C10.2726 4.49674 10.1721 4.52323 10.0716 4.54737L10.0485 4.55539C9.99542 4.56914 9.94115 4.57952 9.88803 4.58983C9.80718 4.62091 9.71712 4.61626 9.63856 4.65536L9.63511 4.69331C9.61663 4.80245 9.60046 4.91165 9.57272 5.0185C9.56812 5.07256 9.5554 5.12656 9.55425 5.18055L9.58659 5.18743C9.69052 5.26677 9.7818 5.36216 9.87876 5.44945C9.95502 5.51154 10.0196 5.58508 10.0936 5.64946C10.1675 5.71377 10.2183 5.75631 10.2772 5.81266C10.3603 5.88736 10.44 5.96548 10.5289 6.0333C10.6179 6.10111 10.7056 6.16313 10.7796 6.24477C10.8188 6.28494 10.8373 6.33786 10.8731 6.38033C10.9089 6.42286 10.9273 6.4838 10.9643 6.53092C11.0012 6.57804 11.0417 6.65388 11.0832 6.7136C11.1249 6.7734 11.1595 6.83542 11.2033 6.89177C11.2923 7.00435 11.3651 7.12852 11.4505 7.24346C11.5151 7.32731 11.5614 7.4227 11.6283 7.50426C11.6757 7.55833 11.7127 7.62035 11.7553 7.67785C11.7022 7.74101 11.6491 7.80424 11.5937 7.86518C11.4875 7.9996 11.3743 8.1295 11.2623 8.25933C11.1502 8.40757 11.0163 8.53747 10.9077 8.688C10.8466 8.76498 10.7807 8.83623 10.7229 8.91558C10.6652 8.99485 10.6051 9.04426 10.5532 9.11437C10.462 9.23045 10.3626 9.34073 10.2772 9.4614C10.2379 9.52577 10.2264 9.60046 10.1964 9.66828C10.1744 9.71884 10.164 9.77283 10.1421 9.82232C10.1075 9.92572 10.0774 10.0314 10.0358 10.1326L10.0324 10.1544L10.0139 10.2004C9.99887 10.2475 9.98614 10.2946 9.96882 10.3406L9.96192 10.3613C9.93188 10.4589 9.89148 10.5532 9.85799 10.6497C9.8245 10.7462 9.80143 10.8186 9.77368 10.9037L9.75981 10.937C9.74019 11.006 9.74134 11.0772 9.72747 11.1473C9.72287 11.1979 9.72402 11.2496 9.72057 11.3013L9.72287 11.2921C9.70784 11.4392 9.71014 11.5887 9.67435 11.7323C9.62353 11.7139 9.58314 11.6771 9.53808 11.6473C9.49783 11.6189 9.46088 11.5867 9.42724 11.5507C9.25855 11.6546 9.08145 11.7415 8.89602 11.8116C8.78633 11.8667 8.67313 11.9104 8.5623 11.9621C8.49991 11.9851 8.44335 12.0242 8.37751 12.0368C8.33244 12.0334 8.2932 12.0104 8.25281 11.9931C8.15348 11.9449 8.04724 11.9116 7.95136 11.8576C7.7481 11.7725 7.53564 11.6967 7.35897 11.5622C7.28156 11.6116 7.19955 11.6576 7.12796 11.7151C7.10029 11.6932 7.0737 11.6725 7.04603 11.6518C7.03215 11.4289 7.02518 11.2059 6.99751 10.9853L6.98824 10.975V10.9405C6.95129 10.8509 6.93052 10.7543 6.89358 10.6647L6.86928 10.6072C6.83464 10.4923 6.7931 10.3785 6.75385 10.2647L6.73071 10.205C6.71109 10.1509 6.69607 10.0958 6.67299 10.043C6.66487 10.0165 6.65797 9.98888 6.65107 9.96246L6.6349 9.94298C6.62433 9.89887 6.60931 9.85633 6.58983 9.81537C6.56324 9.72571 6.53212 9.63727 6.50093 9.54876C6.47663 9.47865 6.43164 9.42008 6.38312 9.36486C6.31498 9.28674 6.25727 9.19937 6.18798 9.12124C6.05516 8.96842 5.92815 8.8121 5.80338 8.65355C5.59897 8.40184 5.38535 8.15936 5.17749 7.90994C5.1128 7.83296 5.04352 7.75941 4.98465 7.67899C5.05739 7.57437 5.144 7.48013 5.20753 7.36985C5.26525 7.28478 5.32879 7.20321 5.38305 7.11584C5.44774 7.0032 5.53895 6.91018 5.60479 6.79868C5.65445 6.72857 5.69715 6.65503 5.75026 6.58721C5.80338 6.5194 5.84844 6.42401 5.89811 6.34359C5.9697 6.22178 6.09095 6.14473 6.19603 6.05514C6.29421 5.98503 6.37155 5.89194 6.46628 5.81839C6.59558 5.69773 6.72611 5.57936 6.85311 5.4564C6.96402 5.35872 7.06795 5.2541 7.1846 5.16444C7.17418 5.11045 7.16728 5.05531 7.15801 5.00131C7.12681 4.88637 7.11991 4.76686 7.08987 4.65077C7.02633 4.63122 6.95942 4.6232 6.89473 4.61282C6.83004 4.60251 6.73653 4.57838 6.65797 4.55653C6.55059 4.52667 6.44199 4.50139 6.33461 4.47031L6.30571 4.45771C6.27107 4.44733 6.23528 4.43931 6.20063 4.43014C6.12904 4.40372 6.05401 4.39333 5.98242 4.37149C5.91083 4.34965 5.82652 4.33361 5.75141 4.30597C5.65589 4.28076 5.55929 4.26085 5.46154 4.24624L5.4154 4.23357C5.39635 4.22798 5.37716 4.2234 5.35761 4.21982C5.28257 4.27496 5.22133 4.34736 5.15442 4.41288C5.06084 4.50368 4.97423 4.60136 4.8749 4.68751C4.83565 4.71974 4.80446 4.76227 4.76177 4.79213C4.74444 4.80703 4.719 4.8197 4.7213 4.84498C4.72015 4.90242 4.7167 4.95992 4.7167 5.01621L4.7075 5.03117C4.70628 5.09319 4.68666 5.15184 4.68206 5.21271C4.67516 5.25639 4.67401 5.30007 4.66358 5.34376C4.66222 5.37433 4.65834 5.40455 4.65201 5.43456C4.63469 5.53682 4.62434 5.64137 4.60587 5.7437C4.5874 5.84596 4.57468 5.91722 4.56425 6.00573C4.55354 6.03982 4.54664 6.07469 4.54348 6.11028C4.53658 6.18153 4.51926 6.25279 4.51926 6.32519L4.59545 6.29303C4.68321 6.28036 4.77564 6.27921 4.85873 6.24477L4.88417 6.24011L4.96503 6.21598L4.995 6.20452C5.00312 6.10684 5.02734 6.01146 5.03309 5.91378C5.04697 5.77242 5.07126 5.63106 5.08046 5.48855C5.08973 5.34605 5.09778 5.23806 5.11165 5.11388C5.14745 5.12541 5.18439 5.13572 5.22133 5.14611C5.35301 5.17368 5.48468 5.20239 5.61744 5.22767C5.75026 5.25295 5.91313 5.30122 6.06321 5.32535L6.09785 5.33917C6.14119 5.34984 6.18511 5.3575 6.22953 5.36216C6.1979 5.40856 6.16326 5.4526 6.12559 5.49428C6.03086 5.62648 5.9316 5.75402 5.83572 5.88506C5.73991 6.01604 5.64288 6.14594 5.55627 6.28379C5.51588 6.3413 5.46621 6.393 5.42575 6.45043C5.3745 6.52162 5.31901 6.58943 5.2595 6.65388C5.20286 6.71704 5.16017 6.79066 5.09893 6.85038C5.09893 6.75156 5.11625 6.65388 5.13013 6.5562C5.13451 6.47944 5.14335 6.40317 5.15672 6.32748C5.04927 6.37574 4.93498 6.41141 4.83335 6.47113C4.73172 6.53092 4.61162 6.57339 4.49957 6.62287C4.38758 6.67229 4.26863 6.74117 4.14853 6.7918C3.98803 6.85955 3.83788 6.94691 3.67969 7.01817C3.71433 7.063 3.74315 7.11241 3.77435 7.15953C3.83213 7.24224 3.88755 7.32617 3.94182 7.41002C3.96956 7.45256 4.0065 7.48937 4.03073 7.5342C4.11158 7.68816 4.22242 7.82379 4.30903 7.97432C4.39563 8.12485 4.47994 8.25819 4.57353 8.39725C4.61967 8.47653 4.68091 8.54664 4.7236 8.62827C4.73172 8.64775 4.75364 8.6673 4.74092 8.68914C4.70513 8.75123 4.64856 8.79606 4.59775 8.84547C4.49612 8.94773 4.39103 9.0477 4.28825 9.14881C4.24786 9.19593 4.20624 9.24191 4.16125 9.28559C4.11618 9.32927 4.06652 9.39823 4.0111 9.4465C3.95569 9.49477 3.88985 9.57748 3.81711 9.62918L3.81366 9.66255C3.86678 9.67172 3.91874 9.68554 3.97186 9.69585C4.02498 9.70623 4.11158 9.72457 4.18087 9.74412L4.21552 9.75679C4.26978 9.76825 4.3229 9.78322 4.37716 9.79818C4.43143 9.81308 4.49497 9.81652 4.55038 9.83607C4.67516 9.87402 4.80446 9.89586 4.93153 9.92687L4.97653 9.93947C5.0277 9.94778 5.07816 9.95924 5.12783 9.97399C5.16419 9.98387 5.20114 9.99075 5.23866 9.99468C5.13588 10.1648 5.08161 10.3578 4.98465 10.5313C4.96963 10.5578 4.94418 10.5877 4.96381 10.6187C5.01929 10.7221 5.06774 10.8302 5.1151 10.9382C5.22371 11.1002 5.32297 11.2691 5.42575 11.4346C5.5332 11.5771 5.61054 11.7381 5.71562 11.8829C5.75105 11.9502 5.78721 12.0173 5.82415 12.0839C5.82882 11.9357 5.82537 11.7886 5.82997 11.6404C5.83917 11.5691 5.83687 11.4967 5.84269 11.4243C5.85304 11.3726 5.84499 11.3209 5.85764 11.2691C5.86692 11.0784 5.87734 10.8887 5.89114 10.698C5.89466 10.6761 5.89114 10.6509 5.90846 10.6348C5.96855 10.5601 6.04588 10.5026 6.11287 10.4348C6.17986 10.367 6.23643 10.3291 6.29191 10.2682C6.34733 10.2073 6.39469 10.1797 6.44436 10.1338C6.44199 10.1728 6.44314 10.213 6.43279 10.2509C6.42416 10.2993 6.41798 10.3479 6.41432 10.3969C6.39117 10.4601 6.38772 10.5279 6.375 10.5934C6.3704 10.6095 6.3658 10.6244 6.3612 10.6405L6.3589 10.675L6.34963 10.6888C6.34273 10.7646 6.32886 10.8405 6.31843 10.9152L6.30456 10.9611C6.29306 11.0221 6.28379 11.0841 6.26992 11.145C6.25612 11.2059 6.24455 11.3037 6.22838 11.3818C6.2163 11.4249 6.20667 11.4686 6.19948 11.5128C6.18798 11.6174 6.15564 11.7185 6.13602 11.8219L6.12329 11.8564C6.11172 11.9024 6.10137 11.9484 6.09095 11.9955L6.07708 12.0299C6.07133 12.0644 6.05976 12.0989 6.05861 12.1334C6.07593 12.1989 6.11517 12.2552 6.14637 12.3138C6.17756 12.3724 6.22148 12.4483 6.25375 12.5183C6.29163 12.5745 6.32433 12.6336 6.35193 12.6954C6.40734 12.7804 6.44436 12.8757 6.50323 12.9574C6.56209 13.0389 6.59788 13.132 6.6464 13.2183C6.66645 13.2597 6.68873 13.3 6.71339 13.3389L6.72036 13.3596C6.77348 13.4377 6.81272 13.5251 6.86238 13.6055C6.86698 13.5734 6.87273 13.5412 6.87971 13.5101L6.89358 13.4653C6.89703 13.4504 6.90048 13.4343 6.90393 13.4193L6.91435 13.3826L6.9224 13.3745C6.93189 13.3114 6.94497 13.2489 6.96172 13.1872C6.98134 13.1206 6.98709 13.0505 7.01253 12.985L7.0425 12.8712C7.19955 13.0022 7.36357 13.1263 7.52874 13.2458C7.57488 13.2803 7.61068 13.3262 7.65804 13.3585C7.70541 13.3906 7.77239 13.4504 7.83471 13.4895C7.88459 13.5207 7.93045 13.5572 7.97213 13.5987C8.04494 13.6676 8.13385 13.7193 8.20889 13.7871C8.26201 13.8285 8.31052 13.8767 8.36249 13.9193C8.40058 13.8871 8.43638 13.8514 8.47569 13.8204C8.58767 13.7365 8.69045 13.6423 8.80251 13.5584C8.88214 13.486 8.97573 13.432 9.05536 13.3608C9.13507 13.2895 9.24245 13.209 9.34063 13.1389C9.45499 13.0493 9.57042 12.9608 9.69052 12.8793C9.70209 12.9252 9.71252 12.97 9.72517 13.016L9.73904 13.0505C9.74831 13.0999 9.75521 13.1504 9.76793 13.1999C9.79675 13.2688 9.80028 13.3447 9.8153 13.4182L9.8268 13.4539C9.83837 13.5033 9.84757 13.5538 9.85799 13.6044L9.87531 13.5987C9.88688 13.5677 9.90148 13.5381 9.91923 13.5101C9.99197 13.4125 10.037 13.2987 10.0982 13.1941C10.1594 13.0895 10.2287 12.9574 10.2992 12.8424C10.4285 12.5954 10.5705 12.3552 10.6894 12.1023C10.6756 12.0748 10.6629 12.0472 10.6502 12.0185C10.6167 11.8932 10.5867 11.7656 10.5601 11.6392C10.5405 11.5587 10.5382 11.476 10.5174 11.3955C10.4966 11.3151 10.4886 11.2106 10.4631 11.1209C10.4377 11.0313 10.4366 10.9692 10.4204 10.8933C10.4042 10.8175 10.3984 10.7302 10.3753 10.6509C10.3523 10.5716 10.35 10.4647 10.3245 10.3728C10.2992 10.2808 10.2956 10.2107 10.2876 10.1291C10.3465 10.182 10.4042 10.236 10.4666 10.2831C10.5324 10.3555 10.6121 10.413 10.6814 10.4819C10.7403 10.5336 10.7922 10.5934 10.8535 10.6417C10.8535 10.7485 10.8662 10.8543 10.8673 10.9611C10.8757 11.0368 10.8791 11.1127 10.8777 11.1887L10.8881 11.2013C10.8881 11.2577 10.8858 11.3151 10.895 11.3703C10.9123 11.607 10.9123 11.8438 10.9146 12.0805C10.9286 12.0651 10.9406 12.0483 10.9505 12.0299C10.9678 11.9621 11.0071 11.9036 11.0429 11.8449C11.1052 11.7369 11.1826 11.6369 11.2426 11.5266C11.3408 11.391 11.4228 11.245 11.5128 11.1048C11.5452 11.06 11.5648 11.0071 11.5983 10.9623C11.6687 10.8692 11.6965 10.7543 11.7473 10.6509C11.7589 10.6256 11.7727 10.5992 11.7658 10.5704C11.7589 10.5417 11.7288 10.4946 11.7138 10.4555C11.6988 10.4164 11.671 10.3681 11.6549 10.3234C11.6295 10.2314 11.5706 10.1532 11.5406 10.0625L11.5082 9.99468C11.596 9.97513 11.6838 9.95444 11.7715 9.93603L11.8189 9.92343C11.864 9.9119 11.9101 9.90274 11.9563 9.89357C12.0244 9.87173 12.0949 9.86134 12.1653 9.84874L12.2 9.83492C12.2542 9.82232 12.3085 9.81308 12.3617 9.79933L12.3952 9.78665C12.4538 9.77663 12.5115 9.76281 12.5684 9.74526C12.6377 9.72571 12.7081 9.71311 12.7774 9.69471L12.8941 9.67172L12.9448 9.66713C12.8894 9.60276 12.8247 9.55105 12.7716 9.48904Z" fill="white"/>
</g>
<mask id="mask3_10_61" style="mask-type:luminance" maskUnits="userSpaceOnUse" x="5" y="5" width="4" height="6">
<path d="M5.39038 5.7666H8.3586V10.4597H5.39038V5.7666Z" fill="white"/>
</mask>
<g mask="url(#mask3_10_61)">
<path d="M10.3172 8.63054C10.4292 8.53973 10.5343 8.43976 10.6521 8.35469C10.6902 8.32826 10.7214 8.29382 10.756 8.26274C10.8184 8.20645 10.89 8.15933 10.9489 8.09839C11.0078 8.03752 11.0794 7.99155 11.1429 7.93519C11.2064 7.8789 11.2584 7.83637 11.3184 7.79039C11.2699 7.72029 11.2087 7.65942 11.1556 7.59275C11.1025 7.52608 11.0263 7.45139 10.9686 7.37555C10.8842 7.26061 10.7756 7.16294 10.7168 7.03081C10.6879 6.96071 10.6509 6.89404 10.6209 6.82393C10.6036 6.78598 10.5863 6.7458 10.5539 6.71823C10.4893 6.65958 10.4315 6.59406 10.3622 6.54121C10.2475 6.43623 10.1297 6.33475 10.0089 6.23665C9.95627 6.18595 9.90121 6.13811 9.84371 6.09299C9.75595 6.02754 9.6751 5.95393 9.59201 5.88389C9.55154 5.85052 9.50655 5.82066 9.46838 5.78385L9.44991 5.78041C9.23292 5.90058 9.00889 6.00592 8.77781 6.09643C8.64153 6.14355 8.51338 6.20908 8.3817 6.26658C8.32399 6.26543 8.27432 6.23206 8.22121 6.21481C8.03067 6.11713 7.8228 6.05855 7.63226 5.96087C7.51331 5.90222 7.39091 5.84937 7.27655 5.77927C7.07559 5.95514 6.86428 6.11713 6.66447 6.29415C6.56981 6.3677 6.48205 6.44926 6.39192 6.52861C6.32263 6.57802 6.26606 6.64118 6.20138 6.69524C6.16062 6.73019 6.13173 6.77309 6.11477 6.82393C6.09975 6.86532 6.07552 6.90206 6.0582 6.9423C6.02356 7.00783 6.00279 7.08137 5.95542 7.13995C5.84689 7.27673 5.73599 7.41236 5.61818 7.54219C5.55371 7.62418 5.48363 7.70117 5.40802 7.77321L5.41269 7.7881C5.52352 7.86974 5.6194 7.96971 5.72679 8.05593C5.78795 8.10068 5.83647 8.16048 5.89655 8.2076C6.01666 8.2984 6.12289 8.40639 6.24759 8.49261C6.3723 8.57876 6.4855 8.68224 6.59403 8.78908C6.68179 8.86606 6.76725 8.9477 6.85968 9.0201C6.84351 9.13618 6.80886 9.24883 6.79154 9.36484C6.76459 9.46323 6.74648 9.56327 6.73728 9.66482C6.81806 9.73263 6.9243 9.75791 7.01558 9.80961L7.03405 9.85673L7.04325 9.90156C7.07099 9.98771 7.07214 10.0808 7.09989 10.167C7.11254 10.221 7.12526 10.2762 7.14718 10.3279C7.16917 10.3796 7.17262 10.4038 7.18412 10.4417C7.23961 10.3854 7.29848 10.3302 7.35044 10.2716C7.34814 10.2245 7.35619 10.1636 7.3158 10.1291C7.4313 10.0808 7.5514 10.0441 7.66569 9.99122C7.78004 9.9383 7.90129 9.88774 8.02025 9.83833C8.11728 9.79121 8.21424 9.74523 8.31587 9.70735C8.34016 9.69697 8.36783 9.68093 8.39443 9.69697C8.47874 9.73492 8.56535 9.77051 8.64965 9.81076C8.79973 9.87743 8.94988 9.94066 9.10117 10.005C9.18778 10.0429 9.27439 10.09 9.37027 10.0981C9.38522 10.1636 9.38177 10.2314 9.40952 10.2934C9.43719 10.3555 9.44991 10.4049 9.50073 10.4382C9.54694 10.3854 9.57814 10.321 9.60351 10.2567C9.62895 10.1923 9.63355 10.1556 9.65547 10.1084C9.6682 10.0199 9.67165 9.93028 9.68322 9.84062C9.78018 9.76937 9.90143 9.73836 9.99731 9.66367C9.99846 9.59242 9.97884 9.5246 9.96957 9.45449C9.9396 9.38897 9.93607 9.31542 9.91997 9.24532C9.9084 9.20171 9.89108 9.16031 9.87721 9.11892C9.87261 9.09479 9.85414 9.06837 9.85989 9.04423C10.01 8.90402 10.1602 8.76266 10.3172 8.63054ZM9.7571 7.67324C9.70514 7.69737 9.65432 7.72494 9.60121 7.74449C9.54809 7.76397 9.5169 7.74098 9.4788 7.75824C9.41987 7.81338 9.37602 7.8812 9.32751 7.94443C9.27899 8.00766 9.22703 8.07197 9.17506 8.13406C9.1788 8.16141 9.18498 8.18819 9.19353 8.21447C9.2074 8.32254 9.22243 8.43167 9.2432 8.53859C9.2455 8.60175 9.2455 8.66498 9.24902 8.72821L9.26282 8.76495C9.26512 8.78794 9.29286 8.82016 9.26634 8.83849C9.18663 8.84544 9.10577 8.83735 9.02614 8.84079C8.91868 8.94885 8.79628 9.0385 8.6889 9.14764C8.5933 9.25756 8.48822 9.35753 8.37365 9.44762C8.32744 9.41081 8.27432 9.38439 8.23156 9.34299C8.16809 9.27869 8.10455 9.2166 8.04684 9.14764C7.93824 9.05569 7.84473 8.9477 7.72922 8.86492C7.65936 8.85174 7.58892 8.84637 7.51791 8.84888L7.49017 8.81322C7.48902 8.73967 7.48787 8.66727 7.49132 8.59487C7.49786 8.55262 7.50131 8.51009 7.50174 8.46733L7.51216 8.45695C7.52021 8.33285 7.55025 8.20989 7.5491 8.08464C7.47594 8.03301 7.41743 7.96828 7.37359 7.89043C7.35741 7.86279 7.34469 7.83408 7.32277 7.81109C7.30078 7.7881 7.23961 7.76862 7.19455 7.75595C7.13101 7.73754 7.07214 7.70997 7.0109 7.68699C6.94974 7.664 6.88275 7.62726 6.81691 7.60313C6.79269 7.59504 6.76725 7.58702 6.74993 7.56861C6.62407 7.44222 6.52359 7.29399 6.40809 7.15835C6.39889 7.14682 6.38617 7.13193 6.39544 7.11582C6.43353 7.04227 6.4924 6.98484 6.55019 6.92619C6.58131 6.89175 6.63327 6.89289 6.66792 6.86303C6.7326 6.85952 6.79384 6.88022 6.85616 6.89289L6.93242 6.91588L6.96706 6.92734C7.0375 6.95605 7.11369 6.96644 7.1865 6.99171L7.26843 7.01928L7.30308 7.03081C7.36316 7.05495 7.4267 7.0687 7.48902 7.08939L7.51446 7.09283L7.53753 7.11696C7.54623 7.16466 7.55737 7.21178 7.57103 7.25832C7.58375 7.33072 7.59295 7.40427 7.60452 7.47667C7.63341 7.5583 7.63104 7.6456 7.64606 7.72838C7.65304 7.75137 7.65764 7.77435 7.66339 7.79849C7.68071 7.93985 7.70155 8.08121 7.70845 8.22371C7.70385 8.26503 7.7004 8.30642 7.69228 8.34781C7.69113 8.45008 7.66224 8.55004 7.66339 8.65238C7.97058 8.65116 8.27662 8.65696 8.58382 8.65352C8.75589 8.65352 8.92795 8.65116 9.10002 8.65352C9.0919 8.62824 9.085 8.60411 9.07695 8.57876C9.06883 8.55348 9.07343 8.55004 9.07228 8.53515C9.05266 8.43976 9.04461 8.34323 9.03304 8.2467C9.02499 8.17308 9.03304 8.09839 9.04806 8.02714C9.06308 7.95589 9.06308 7.86516 9.08155 7.78696C9.09995 7.68921 9.11346 7.59074 9.12195 7.49163L9.13122 7.47896L9.13467 7.44451C9.15429 7.34111 9.16931 7.23534 9.19238 7.13193L9.2051 7.1055C9.27324 7.07557 9.34483 7.05953 9.41642 7.03883L9.43841 7.03311L9.47305 7.02043L9.5192 7.00554C9.66935 6.95956 9.82064 6.91702 9.97194 6.87563C10.0169 6.85952 10.0631 6.87678 10.1094 6.87792C10.2179 6.92046 10.323 7.00897 10.3322 7.13307C10.3218 7.20318 10.2733 7.25832 10.2248 7.30659C10.1544 7.38242 10.0932 7.4675 10.0146 7.53531C9.99551 7.55443 9.97819 7.57513 9.96267 7.59733L9.93377 7.60657C9.86679 7.60771 9.81482 7.64789 9.7571 7.67324Z" fill="white"/>
</g>
<path d="M7.09342 7.19055C7.05877 7.14228 6.99409 7.13426 6.94449 7.10783C6.86593 7.06873 6.78162 7.04689 6.69617 7.02734C6.65541 7.04725 6.61351 7.06415 6.57031 7.07797C6.58878 7.11815 6.61998 7.15037 6.64995 7.18253C6.69617 7.23996 6.74238 7.29746 6.78852 7.35489C6.81627 7.39056 6.86133 7.4043 6.90288 7.41813C6.9782 7.45393 7.05633 7.48186 7.13733 7.50198C7.15624 7.50721 7.17543 7.5085 7.19483 7.50592C7.21431 7.50327 7.23242 7.49704 7.24932 7.48709C7.24932 7.46525 7.24932 7.4434 7.24817 7.42156C7.20777 7.33649 7.14538 7.2676 7.09342 7.19055Z" fill="white"/>
<mask id="mask4_10_61" style="mask-type:luminance" maskUnits="userSpaceOnUse" x="7" y="10" width="2" height="2">
<path d="M7.30469 10.2214H8.35931V11.6697H7.30469V10.2214Z" fill="white"/>
</mask>
<g mask="url(#mask4_10_61)">
<path d="M9.04695 10.6704C8.98111 10.621 8.91988 10.567 8.85411 10.5165C8.73048 10.4234 8.61038 10.321 8.46721 10.2556L8.43256 10.2452L8.3875 10.2314C8.3517 10.2382 8.3167 10.2478 8.28242 10.2602L8.22585 10.2797C8.12537 10.3245 8.04106 10.3946 7.9556 10.4612C7.90946 10.5095 7.84707 10.5371 7.79855 10.5819C7.71424 10.659 7.61728 10.721 7.53068 10.7957C7.48906 10.8313 7.45672 10.8762 7.41632 10.914C7.37593 10.952 7.35976 10.983 7.35508 11.0267C7.34933 11.0666 7.34006 11.1056 7.32741 11.1439C7.31929 11.168 7.31354 11.1933 7.30664 11.2175L7.36206 11.2611C7.44593 11.292 7.52794 11.3273 7.60801 11.3668C7.6681 11.3898 7.72927 11.4128 7.7882 11.4392C7.88746 11.4841 7.99377 11.5105 8.09073 11.5599L8.1092 11.5646C8.18891 11.5956 8.26394 11.6357 8.3448 11.6657C8.41064 11.668 8.46721 11.63 8.52614 11.6082C8.70166 11.5278 8.88523 11.4668 9.06197 11.3887C9.14628 11.3519 9.22937 11.3128 9.31598 11.283C9.34947 11.2689 9.38138 11.252 9.41186 11.2324C9.40611 11.1554 9.38994 11.0807 9.37377 11.006C9.31483 10.8543 9.16475 10.7715 9.04695 10.6704Z" fill="white"/>
</g>
</svg>