<svg width="32" height="32" viewBox="0 0 32 32" fill="none" xmlns="http://www.w3.org/2000/svg">
<path d="M11.6665 4.6665V2.6665C11.6665 2.11984 11.2132 1.6665 10.6665 1.6665C10.1198 1.6665 9.6665 2.11984 9.6665 2.6665V4.7465C9.99984 4.7065 10.3065 4.6665 10.6665 4.6665H11.6665Z" fill="#202020"/>
<path d="M22.3335 4.7465V2.6665C22.3335 2.11984 21.8802 1.6665 21.3335 1.6665C20.7868 1.6665 20.3335 2.11984 20.3335 2.6665V4.6665H21.3335C21.6935 4.6665 22.0002 4.7065 22.3335 4.7465Z" fill="#202020"/>
<path d="M22.3333 4.7465V6.6665C22.3333 7.21317 21.88 7.6665 21.3333 7.6665C20.7867 7.6665 20.3333 7.21317 20.3333 6.6665V4.6665H11.6667V6.6665C11.6667 7.21317 11.2133 7.6665 10.6667 7.6665C10.12 7.6665 9.66667 7.21317 9.66667 6.6665V4.7465C5.73333 5.1065 4 7.63984 4 11.3332V22.6665C4 26.6665 6 29.3332 10.6667 29.3332H21.3333C26 29.3332 28 26.6665 28 22.6665V11.3332C28 7.63984 26.2667 5.1065 22.3333 4.7465ZM16 22.3332H10.6667C10.12 22.3332 9.66667 21.8798 9.66667 21.3332C9.66667 20.7865 10.12 20.3332 10.6667 20.3332H16C16.5467 20.3332 17 20.7865 17 21.3332C17 21.8798 16.5467 22.3332 16 22.3332ZM21.3333 15.6665H10.6667C10.12 15.6665 9.66667 15.2132 9.66667 14.6665C9.66667 14.1198 10.12 13.6665 10.6667 13.6665H21.3333C21.88 13.6665 22.3333 14.1198 22.3333 14.6665C22.3333 15.2132 21.88 15.6665 21.3333 15.6665Z" fill="#202020"/>
</svg>
