<svg  xmlns="http://www.w3.org/2000/svg" xmlns:xlink="http://www.w3.org/1999/xlink" viewBox="0 0 300 300">
    <style>:root>svg{display:none}:root>svg:target{display:block}</style>
    <svg id="btn-prev" xmlns="http://www.w3.org/2000/svg" viewBox="0 0 16 16" fill="none">
        <path d="M11 0.999997L5.4882 6.5118C4.83727 7.16273 4.83727 8.22789 5.4882 8.87883L11 14.3906" stroke-width="2" stroke-miterlimit="10" stroke-linecap="round" stroke-linejoin="round"/>
    </svg>
    <svg id="btn-next" xmlns="http://www.w3.org/2000/svg" viewBox="0 0 16 16" fill="none">
        <path d="M5 14.3906L10.5118 8.87883C11.1627 8.2279 11.1627 7.16273 10.5118 6.5118L5 1" stroke-width="2" stroke-miterlimit="10" stroke-linecap="round" stroke-linejoin="round"/>
    </svg>
    <svg id="link-arr" xmlns="http://www.w3.org/2000/svg" viewBox="0 0 18 18" fill="none">
        <path d="M1 17L17 1M17 1H1M17 1V17" stroke-width="2" stroke-linecap="round" stroke-linejoin="round"/>
    </svg>
    <svg id="link-ext" xmlns="http://www.w3.org/2000/svg" viewBox="0 0 19 19" fill="none">
        <path d="M7.5 1.5H3.5C2.39543 1.5 1.5 2.39543 1.5 3.5V15.5C1.5 16.6046 2.39543 17.5 3.5 17.5H15.5C16.6046 17.5 17.5 16.6046 17.5 15.5V11.5M8.5 10.5L17.5 1.5M17.5 1.5V6.5M17.5 1.5H12.5"  stroke-width="2" stroke-linecap="round" stroke-linejoin="round"/>
    </svg>
    <svg id="vk" xmlns="http://www.w3.org/2000/svg" viewBox="0 0 25 23">
        <path d="M15.1383 11.2265C14.6811 11.0563 14.6811 10.4061 14.6528 9.95328C14.5385 8.34047 15.1099 5.87824 14.4242 4.83141C13.9387 4.20838 11.5954 4.26543 10.1673 4.35056C9.7669 4.40761 9.28142 4.49183 8.93856 4.66207C8.59571 4.83232 8.25286 5.11485 8.25286 5.36932C8.25286 5.73698 9.11045 5.68083 9.42404 6.16169C9.7669 6.67152 9.7669 7.77449 9.7669 8.68006C9.7669 9.72689 9.59501 11.1142 9.16713 11.1704C8.50977 11.1984 8.13857 10.5473 7.79572 10.0665C7.11001 9.13284 6.42431 7.97191 5.90957 6.83995C5.65266 6.2459 5.50912 5.5948 5.13793 5.34034C4.5665 4.9437 3.53795 4.91563 2.53773 4.9437C1.62346 4.97178 0.308729 4.85858 0.0518181 5.39648C-0.148408 5.99053 0.280387 6.55651 0.508955 7.03827C1.68014 9.55664 2.93727 11.7644 4.48056 13.8581C5.90957 15.8105 7.25173 17.3671 9.88027 18.1876C10.6236 18.414 13.8802 19.0651 14.5376 18.1876C14.7661 17.848 14.7095 17.0837 14.8237 16.5177C14.938 15.9517 15.0807 15.3858 15.6237 15.3577C16.0809 15.3296 16.3378 15.7253 16.624 16.0088C16.9385 16.3203 17.1954 16.5748 17.4239 16.8582C17.967 17.3961 18.5384 18.1314 19.2241 18.4149C20.1668 18.8115 21.6241 18.6983 22.9955 18.6413C24.11 18.6132 24.91 18.3868 24.996 17.7357C25.0536 17.2259 24.4812 16.4905 24.1384 16.0658C23.2808 15.019 22.8812 14.7075 21.9094 13.7449C21.4806 13.3202 20.9375 12.8674 20.9375 12.3585C20.9092 12.0469 21.1661 11.7644 21.3946 11.4529C22.3949 9.98135 23.3951 8.93452 24.3093 7.40593C24.5663 6.95315 25.1669 5.90632 24.9384 5.39648C24.6815 4.83051 23.2524 4.99985 22.3665 4.99985C21.2237 4.99985 19.738 4.91472 19.4518 5.14112C18.9087 5.50877 18.6802 6.10373 18.4232 6.66971C17.8518 7.97191 17.0802 9.30128 16.2802 10.292C15.994 10.6315 15.4519 11.3388 15.1373 11.2256L15.1383 11.2265Z"/>
    </svg>
    <svg id="whatsapp" xmlns="http://www.w3.org/2000/svg" viewBox="0 0 25 23">
        <path fill-rule="evenodd" clip-rule="evenodd" d="M18.9031 16.0332C18.638 16.7836 17.5842 17.4044 16.7438 17.586C16.1685 17.7081 15.4183 17.8047 12.8905 16.7572C10.0514 15.581 6.109 11.3911 6.109 8.60283C6.109 7.1834 6.9274 5.53057 8.3585 5.53057C9.0471 5.53057 9.1989 5.54399 9.4255 6.08755C9.6906 6.72795 10.3374 8.30574 10.4144 8.46748C10.7323 9.13098 10.091 9.51939 9.62569 10.0971C9.47719 10.2709 9.3089 10.4589 9.497 10.7824C9.684 11.0993 10.3308 12.1535 11.2812 12.9996C12.5088 14.0933 13.5043 14.4425 13.8607 14.5911C14.1258 14.7011 14.4426 14.6755 14.6362 14.4686C14.8815 14.2034 15.1862 13.7635 15.4964 13.3299C15.7153 13.0196 15.9936 12.9809 16.2851 13.0909C16.482 13.1591 18.9845 14.3213 19.0901 14.5073C19.1682 14.6426 19.1682 15.2828 18.9031 16.0332ZM12.5022 0.5H12.4967C6.43239 0.5 1.5 5.43389 1.5 11.5C1.5 13.9053 2.27551 16.1369 3.59441 17.9469L2.22381 22.0343L6.45111 20.6835C8.19021 21.8344 10.2659 22.5 12.5022 22.5C18.5665 22.5 23.5 17.5661 23.5 11.5C23.5 5.43389 18.5665 0.5 12.5022 0.5Z"/>
    </svg>
    <svg id="telegram" xmlns="http://www.w3.org/2000/svg" viewBox="0 0 25 23">
        <path d="M22.015 2.33309L2.52726 9.89969C1.1973 10.4376 1.205 11.1846 2.28326 11.5177L7.28654 13.0892L18.8627 5.73513C19.4101 5.39979 19.9102 5.58019 19.4991 5.94762L10.1201 14.4704H10.1179L10.1201 14.4715L9.775 19.6642C10.2806 19.6642 10.5037 19.4307 10.7873 19.1551L13.2175 16.7757L18.2725 20.5352C19.2045 21.052 19.8739 20.7864 20.1058 19.6664L23.4241 3.92012C23.7638 2.5489 22.9042 1.92803 22.015 2.33309Z"/>
    </svg>
    <svg id="odnoklassniki" xmlns="http://www.w3.org/2000/svg" viewBox="0 0 23 23">
        <path d="M11.5008 11.6356C14.5697 11.6356 17.057 9.14776 17.057 6.07829C17.057 3.00882 14.5697 0.521484 11.5008 0.521484C8.43073 0.521484 5.94236 3.00882 5.94236 6.07829C5.94232 9.14776 8.43073 11.6356 11.5008 11.6356ZM11.5008 3.34436C13.0103 3.34436 14.2341 4.5682 14.2341 6.07825C14.2341 7.58834 13.0103 8.81213 11.5008 8.81213C9.98963 8.81213 8.76631 7.58834 8.76631 6.07825C8.76631 4.5682 9.98959 3.34436 11.5008 3.34436ZM17.9056 12.3137C17.5925 11.6833 16.7236 11.1591 15.5683 12.0688C14.0068 13.2985 11.5007 13.2985 11.5007 13.2985C11.5007 13.2985 8.99302 13.2985 7.43149 12.0688C6.27679 11.1591 5.40839 11.6833 5.0948 12.3137C4.54695 13.4122 5.16501 13.9434 6.55987 14.8386C7.751 15.6036 9.38811 15.8893 10.4447 15.996L9.56235 16.8784C8.31978 18.1204 7.12061 19.3206 6.28809 20.1531C5.79008 20.6506 5.79008 21.4574 6.28809 21.9549L6.43762 22.1055C6.93563 22.603 7.74189 22.603 8.23986 22.1055L11.5141 18.8307C12.7578 20.0733 13.9569 21.273 14.7894 22.1055C15.2874 22.603 16.0937 22.603 16.5917 22.1055L16.7412 21.9549C17.2392 21.4568 17.2392 20.6506 16.7412 20.1526L13.4669 16.8784L12.5825 15.9933C13.6401 15.884 15.259 15.5972 16.4404 14.8387C17.8353 13.9433 18.4524 13.4121 17.9056 12.3137Z"/>
    </svg>
    <svg id="search" xmlns="http://www.w3.org/2000/svg" viewBox="0 0 14 14">
        <path fill-rule="evenodd" clip-rule="evenodd" d="M9.80886 10.5321C8.77081 11.4066 7.43032 11.9335 5.96677 11.9335C2.67142 11.9335 0 9.26213 0 5.96677C0 2.67142 2.67142 0 5.96677 0C9.26213 0 11.9335 2.67142 11.9335 5.96677C11.9335 7.43032 11.4066 8.77081 10.5321 9.80886L14 13.2767L13.2767 14L9.80886 10.5321ZM10.9107 5.96677C10.9107 8.69725 8.69725 10.9107 5.96677 10.9107C3.23633 10.9107 1.02287 8.69725 1.02287 5.96677C1.02287 3.23633 3.23633 1.02287 5.96677 1.02287C8.69725 1.02287 10.9107 3.23633 10.9107 5.96677Z"/>
    </svg>
    <svg id="star-5" xmlns="http://www.w3.org/2000/svg" viewBox="0 0 98 19">
        <path fill-rule="evenodd" clip-rule="evenodd" d="M8.08049 2.58644C8.32865 2.1531 8.75268 1.57977 9.49998 1.57977C10.2473 1.57977 10.6713 2.1531 10.9195 2.58644C11.1795 3.04047 11.44 3.69109 11.745 4.45289L11.7985 4.58631C11.988 5.05958 12.109 5.35903 12.2243 5.57874C12.3311 5.78236 12.4026 5.85562 12.4611 5.89913C12.5194 5.94258 12.6098 5.98996 12.835 6.03375C13.078 6.08102 13.399 6.11079 13.9062 6.15628L14.1453 6.17773C14.8962 6.24503 15.5457 6.30325 16.0248 6.41648C16.4956 6.52777 17.12 6.76307 17.3464 7.43708C17.5725 8.11057 17.2174 8.6752 16.9096 9.04862C16.5963 9.42867 16.114 9.86811 15.5563 10.3763L15.1122 10.7809C14.8002 11.0653 14.6034 11.2455 14.4634 11.3972C14.3332 11.5383 14.2912 11.6143 14.2693 11.6703C14.2556 11.7055 14.2442 11.7415 14.2352 11.7781C14.2208 11.8366 14.2114 11.9231 14.2366 12.1137C14.2638 12.3187 14.3208 12.5796 14.4122 12.9921L14.4775 13.287C14.6314 13.9815 14.7609 14.5657 14.8114 15.0144C14.857 15.4193 14.8846 16.0164 14.4877 16.459C14.28 16.6906 14.01 16.8575 13.7098 16.9395C13.1355 17.0965 12.614 16.8031 12.2732 16.5805C11.8955 16.3339 11.4323 15.9558 10.8817 15.5064L10.8449 15.4764C10.4512 15.155 10.1979 14.9494 9.99035 14.8104C9.7945 14.6792 9.6985 14.6491 9.63545 14.6391C9.5457 14.6247 9.45426 14.6247 9.36451 14.6391C9.30146 14.6491 9.20546 14.6792 9.00961 14.8104C8.80202 14.9494 8.54877 15.155 8.15503 15.4764L8.11819 15.5065C7.56766 15.9558 7.10446 16.3339 6.72677 16.5805C6.38598 16.8031 5.8645 17.0965 5.29012 16.9395C4.98996 16.8575 4.71994 16.6906 4.5123 16.459C4.11536 16.0164 4.14293 15.4193 4.18856 15.0144C4.23911 14.5657 4.36854 13.9815 4.52242 13.287L4.58774 12.9921C4.67912 12.5796 4.73621 12.3187 4.76335 12.1137C4.78858 11.9231 4.77918 11.8366 4.76479 11.7781C4.75578 11.7415 4.74437 11.7055 4.73066 11.6703C4.7088 11.6143 4.66676 11.5383 4.53657 11.3972C4.39651 11.2455 4.19981 11.0653 3.88775 10.7809L3.44369 10.3763C2.88594 9.86812 2.40363 9.42868 2.09035 9.04862C1.78253 8.6752 1.42744 8.11057 1.65359 7.43708C1.87991 6.76307 2.50431 6.52777 2.97517 6.41648C3.45422 6.30325 4.10375 6.24503 4.85462 6.17773C4.8751 6.17589 4.89564 6.17405 4.91626 6.1722L5.09381 6.15628C5.60096 6.11079 5.92191 6.08102 6.165 6.03375C6.39013 5.98996 6.48054 5.94258 6.53889 5.89913C6.59732 5.85562 6.66884 5.78236 6.77569 5.57874C6.891 5.35903 7.01196 5.05958 7.2015 4.58631L7.23175 4.51076C7.23951 4.4914 7.24723 4.47211 7.25493 4.45289C7.55997 3.69109 7.82049 3.04046 8.08049 2.58644Z"/>
        <path fill-rule="evenodd" clip-rule="evenodd" d="M28.0805 2.58644C28.3286 2.1531 28.7527 1.57977 29.5 1.57977C30.2473 1.57977 30.6713 2.1531 30.9195 2.58644C31.1795 3.04047 31.44 3.69109 31.745 4.45289L31.7985 4.58631C31.988 5.05958 32.109 5.35903 32.2243 5.57874C32.3311 5.78236 32.4026 5.85562 32.4611 5.89913C32.5194 5.94258 32.6098 5.98996 32.835 6.03375C33.078 6.08102 33.399 6.11079 33.9062 6.15628L34.1453 6.17773C34.8962 6.24503 35.5457 6.30325 36.0248 6.41648C36.4956 6.52777 37.12 6.76307 37.3464 7.43708C37.5725 8.11057 37.2174 8.6752 36.9096 9.04862C36.5963 9.42867 36.114 9.86811 35.5563 10.3763L35.1122 10.7809C34.8002 11.0653 34.6034 11.2455 34.4634 11.3972C34.3332 11.5383 34.2912 11.6143 34.2693 11.6703C34.2556 11.7055 34.2442 11.7415 34.2352 11.7781C34.2208 11.8366 34.2114 11.9231 34.2366 12.1137C34.2638 12.3187 34.3208 12.5796 34.4122 12.9921L34.4775 13.287C34.6314 13.9815 34.7609 14.5657 34.8114 15.0144C34.857 15.4193 34.8846 16.0164 34.4877 16.459C34.28 16.6906 34.01 16.8575 33.7098 16.9395C33.1355 17.0965 32.614 16.8031 32.2732 16.5805C31.8955 16.3339 31.4323 15.9558 30.8817 15.5064L30.8449 15.4764C30.4512 15.155 30.1979 14.9494 29.9904 14.8104C29.7945 14.6792 29.6985 14.6491 29.6354 14.6391C29.5457 14.6247 29.4543 14.6247 29.3645 14.6391C29.3015 14.6491 29.2055 14.6792 29.0096 14.8104C28.802 14.9494 28.5488 15.155 28.155 15.4764L28.1182 15.5065C27.5677 15.9558 27.1045 16.3339 26.7268 16.5805C26.386 16.8031 25.8645 17.0965 25.2901 16.9395C24.99 16.8575 24.7199 16.6906 24.5123 16.459C24.1154 16.0164 24.1429 15.4193 24.1886 15.0144C24.2391 14.5657 24.3685 13.9815 24.5224 13.287L24.5877 12.9921C24.6791 12.5796 24.7362 12.3187 24.7633 12.1137C24.7886 11.9231 24.7792 11.8366 24.7648 11.7781C24.7558 11.7415 24.7444 11.7055 24.7307 11.6703C24.7088 11.6143 24.6668 11.5383 24.5366 11.3972C24.3965 11.2455 24.1998 11.0653 23.8877 10.7809L23.4437 10.3763C22.8859 9.86812 22.4036 9.42868 22.0903 9.04862C21.7825 8.6752 21.4274 8.11057 21.6536 7.43708C21.8799 6.76307 22.5043 6.52777 22.9752 6.41648C23.4542 6.30325 24.1037 6.24503 24.8546 6.17773C24.8751 6.17589 24.8956 6.17405 24.9163 6.1722L25.0938 6.15628C25.601 6.11079 25.9219 6.08102 26.165 6.03375C26.3901 5.98996 26.4805 5.94258 26.5389 5.89913C26.5973 5.85562 26.6688 5.78236 26.7757 5.57874C26.891 5.35903 27.012 5.05958 27.2015 4.58631L27.2318 4.51076C27.2395 4.4914 27.2472 4.47211 27.2549 4.45289C27.56 3.69109 27.8205 3.04046 28.0805 2.58644Z"/>
        <path fill-rule="evenodd" clip-rule="evenodd" d="M47.6552 2.58644C47.8903 2.1531 48.292 1.57977 49 1.57977C49.708 1.57977 50.1097 2.1531 50.3448 2.58644C50.5911 3.04047 50.8379 3.69109 51.1269 4.45289L51.1775 4.58631C51.3571 5.05958 51.4717 5.35903 51.5809 5.57874C51.6821 5.78236 51.7499 5.85562 51.8052 5.89913C51.8605 5.94258 51.9462 5.98996 52.1594 6.03375C52.3897 6.08102 52.6938 6.11079 53.1743 6.15628L53.4009 6.17773C54.1122 6.24503 54.7276 6.30325 55.1814 6.41648C55.6275 6.52777 56.219 6.76307 56.4334 7.43708C56.6477 8.11057 56.3113 8.6752 56.0196 9.04862C55.7229 9.42867 55.2659 9.86811 54.7375 10.3763L54.3168 10.7809C54.0212 11.0653 53.8349 11.2455 53.7022 11.3972C53.5788 11.5383 53.539 11.6143 53.5183 11.6703C53.5053 11.7055 53.4945 11.7415 53.486 11.7781C53.4723 11.8366 53.4634 11.9231 53.4873 12.1137C53.513 12.3187 53.5671 12.5796 53.6537 12.9921L53.7156 13.287C53.8614 13.9815 53.984 14.5657 54.0319 15.0144C54.0751 15.4193 54.1012 16.0164 53.7252 16.459C53.5285 16.6906 53.2726 16.8575 52.9883 16.9395C52.4441 17.0965 51.9501 16.8031 51.6272 16.5805C51.2694 16.3339 50.8306 15.9558 50.309 15.5064L50.2742 15.4764C49.9011 15.155 49.6612 14.9494 49.4646 14.8104C49.279 14.6792 49.1881 14.6491 49.1283 14.6391C49.0433 14.6247 48.9567 14.6247 48.8717 14.6391C48.8119 14.6491 48.721 14.6792 48.5354 14.8104C48.3388 14.9494 48.0989 15.155 47.7258 15.4764L47.6909 15.5065C47.1694 15.9558 46.7306 16.3339 46.3727 16.5805C46.0499 16.8031 45.5559 17.0965 45.0117 16.9395C44.7273 16.8575 44.4715 16.6906 44.2748 16.459C43.8988 16.0164 43.9249 15.4193 43.9681 15.0144C44.016 14.5657 44.1386 13.9815 44.2844 13.287L44.3463 12.9921C44.4329 12.5796 44.4869 12.3187 44.5127 12.1137C44.5366 11.9231 44.5277 11.8366 44.514 11.7781C44.5055 11.7415 44.4947 11.7055 44.4817 11.6703C44.461 11.6143 44.4212 11.5383 44.2978 11.3972C44.1651 11.2455 43.9788 11.0653 43.6831 10.7809L43.2625 10.3763C42.7341 9.86812 42.2771 9.42868 41.9803 9.04862C41.6887 8.6752 41.3523 8.11057 41.5666 7.43708C41.781 6.76307 42.3725 6.52777 42.8186 6.41648C43.2724 6.30325 43.8878 6.24503 44.5991 6.17773C44.6185 6.17589 44.638 6.17405 44.6575 6.1722L44.8257 6.15628C45.3062 6.11079 45.6102 6.08102 45.8405 6.03375C46.0538 5.98996 46.1395 5.94258 46.1948 5.89913C46.2501 5.85562 46.3179 5.78236 46.4191 5.57874C46.5283 5.35903 46.6429 5.05958 46.8225 4.58631L46.8511 4.51076C46.8585 4.4914 46.8658 4.47211 46.8731 4.45289C47.1621 3.69109 47.4089 3.04046 47.6552 2.58644Z"/>
        <path fill-rule="evenodd" clip-rule="evenodd" d="M67.0805 2.58644C67.3286 2.1531 67.7527 1.57977 68.5 1.57977C69.2473 1.57977 69.6713 2.1531 69.9195 2.58644C70.1795 3.04047 70.44 3.69109 70.745 4.45289L70.7985 4.58631C70.988 5.05958 71.109 5.35903 71.2243 5.57874C71.3311 5.78236 71.4026 5.85562 71.4611 5.89913C71.5194 5.94258 71.6098 5.98996 71.835 6.03375C72.078 6.08102 72.399 6.11079 72.9062 6.15628L73.1453 6.17773C73.8962 6.24503 74.5457 6.30325 75.0248 6.41648C75.4956 6.52777 76.12 6.76307 76.3464 7.43708C76.5725 8.11057 76.2174 8.6752 75.9096 9.04862C75.5963 9.42867 75.114 9.86811 74.5563 10.3763L74.1122 10.7809C73.8002 11.0653 73.6034 11.2455 73.4634 11.3972C73.3332 11.5383 73.2912 11.6143 73.2693 11.6703C73.2556 11.7055 73.2442 11.7415 73.2352 11.7781C73.2208 11.8366 73.2114 11.9231 73.2366 12.1137C73.2638 12.3187 73.3208 12.5796 73.4122 12.9921L73.4775 13.287C73.6314 13.9815 73.7609 14.5657 73.8114 15.0144C73.857 15.4193 73.8846 16.0164 73.4877 16.459C73.28 16.6906 73.01 16.8575 72.7098 16.9395C72.1355 17.0965 71.614 16.8031 71.2732 16.5805C70.8955 16.3339 70.4323 15.9558 69.8817 15.5064L69.8449 15.4764C69.4512 15.155 69.1979 14.9494 68.9904 14.8104C68.7945 14.6792 68.6985 14.6491 68.6354 14.6391C68.5457 14.6247 68.4543 14.6247 68.3645 14.6391C68.3015 14.6491 68.2055 14.6792 68.0096 14.8104C67.802 14.9494 67.5488 15.155 67.155 15.4764L67.1182 15.5065C66.5677 15.9558 66.1045 16.3339 65.7268 16.5805C65.386 16.8031 64.8645 17.0965 64.2901 16.9395C63.99 16.8575 63.7199 16.6906 63.5123 16.459C63.1154 16.0164 63.1429 15.4193 63.1886 15.0144C63.2391 14.5657 63.3685 13.9815 63.5224 13.287L63.5877 12.9921C63.6791 12.5796 63.7362 12.3187 63.7633 12.1137C63.7886 11.9231 63.7792 11.8366 63.7648 11.7781C63.7558 11.7415 63.7444 11.7055 63.7307 11.6703C63.7088 11.6143 63.6668 11.5383 63.5366 11.3972C63.3965 11.2455 63.1998 11.0653 62.8877 10.7809L62.4437 10.3763C61.8859 9.86812 61.4036 9.42868 61.0903 9.04862C60.7825 8.6752 60.4274 8.11057 60.6536 7.43708C60.8799 6.76307 61.5043 6.52777 61.9752 6.41648C62.4542 6.30325 63.1037 6.24503 63.8546 6.17773C63.8751 6.17589 63.8956 6.17405 63.9163 6.1722L64.0938 6.15628C64.601 6.11079 64.9219 6.08102 65.165 6.03375C65.3901 5.98996 65.4805 5.94258 65.5389 5.89913C65.5973 5.85562 65.6688 5.78236 65.7757 5.57874C65.891 5.35903 66.012 5.05958 66.2015 4.58631L66.2318 4.51076C66.2395 4.4914 66.2472 4.47211 66.2549 4.45289C66.56 3.69109 66.8205 3.04046 67.0805 2.58644Z"/>
        <path fill-rule="evenodd" clip-rule="evenodd" d="M87.0805 2.58644C87.3286 2.1531 87.7527 1.57977 88.5 1.57977C89.2473 1.57977 89.6713 2.1531 89.9195 2.58644C90.1795 3.04047 90.44 3.69109 90.745 4.45289L90.7985 4.58631C90.988 5.05958 91.109 5.35903 91.2243 5.57874C91.3311 5.78236 91.4026 5.85562 91.4611 5.89913C91.5194 5.94258 91.6098 5.98996 91.835 6.03375C92.078 6.08102 92.399 6.11079 92.9062 6.15628L93.1453 6.17773C93.8962 6.24503 94.5457 6.30325 95.0248 6.41648C95.4956 6.52777 96.12 6.76307 96.3464 7.43708C96.5725 8.11057 96.2174 8.6752 95.9096 9.04862C95.5963 9.42867 95.114 9.86811 94.5563 10.3763L94.1122 10.7809C93.8002 11.0653 93.6034 11.2455 93.4634 11.3972C93.3332 11.5383 93.2912 11.6143 93.2693 11.6703C93.2556 11.7055 93.2442 11.7415 93.2352 11.7781C93.2208 11.8366 93.2114 11.9231 93.2366 12.1137C93.2638 12.3187 93.3208 12.5796 93.4122 12.9921L93.4775 13.287C93.6314 13.9815 93.7609 14.5657 93.8114 15.0144C93.857 15.4193 93.8846 16.0164 93.4877 16.459C93.28 16.6906 93.01 16.8575 92.7098 16.9395C92.1355 17.0965 91.614 16.8031 91.2732 16.5805C90.8955 16.3339 90.4323 15.9558 89.8817 15.5064L89.8449 15.4764C89.4512 15.155 89.1979 14.9494 88.9904 14.8104C88.7945 14.6792 88.6985 14.6491 88.6354 14.6391C88.5457 14.6247 88.4543 14.6247 88.3645 14.6391C88.3015 14.6491 88.2055 14.6792 88.0096 14.8104C87.802 14.9494 87.5488 15.155 87.155 15.4764L87.1182 15.5065C86.5677 15.9558 86.1045 16.3339 85.7268 16.5805C85.386 16.8031 84.8645 17.0965 84.2901 16.9395C83.99 16.8575 83.7199 16.6906 83.5123 16.459C83.1154 16.0164 83.1429 15.4193 83.1886 15.0144C83.2391 14.5657 83.3685 13.9815 83.5224 13.287L83.5877 12.9921C83.6791 12.5796 83.7362 12.3187 83.7633 12.1137C83.7886 11.9231 83.7792 11.8366 83.7648 11.7781C83.7558 11.7415 83.7444 11.7055 83.7307 11.6703C83.7088 11.6143 83.6668 11.5383 83.5366 11.3972C83.3965 11.2455 83.1998 11.0653 82.8877 10.7809L82.4437 10.3763C81.8859 9.86812 81.4036 9.42868 81.0903 9.04862C80.7825 8.6752 80.4274 8.11057 80.6536 7.43708C80.8799 6.76307 81.5043 6.52777 81.9752 6.41648C82.4542 6.30325 83.1037 6.24503 83.8546 6.17773C83.8751 6.17589 83.8956 6.17405 83.9163 6.1722L84.0938 6.15628C84.601 6.11079 84.9219 6.08102 85.165 6.03375C85.3901 5.98996 85.4805 5.94258 85.5389 5.89913C85.5973 5.85562 85.6688 5.78236 85.7757 5.57874C85.891 5.35903 86.012 5.05958 86.2015 4.58631L86.2318 4.51076C86.2395 4.4914 86.2472 4.47211 86.2549 4.45289C86.56 3.69109 86.8205 3.04046 87.0805 2.58644Z"/>
    </svg>
</svg>
