<svg width="32" height="32" viewBox="0 0 32 32" fill="none" xmlns="http://www.w3.org/2000/svg">
<path d="M15.9999 6.2002C9.62661 6.2002 4.43994 11.3869 4.43994 17.7602C4.43994 24.1335 9.62661 29.3335 15.9999 29.3335C22.3733 29.3335 27.5599 24.1469 27.5599 17.7735C27.5599 11.4002 22.3733 6.2002 15.9999 6.2002ZM16.9999 17.3335C16.9999 17.8802 16.5466 18.3335 15.9999 18.3335C15.4533 18.3335 14.9999 17.8802 14.9999 17.3335V10.6669C14.9999 10.1202 15.4533 9.66686 15.9999 9.66686C16.5466 9.66686 16.9999 10.1202 16.9999 10.6669V17.3335Z" fill="#202020"/>
<path d="M19.8532 4.59984H12.1465C11.6132 4.59984 11.1865 4.17317 11.1865 3.63984C11.1865 3.1065 11.6132 2.6665 12.1465 2.6665H19.8532C20.3865 2.6665 20.8132 3.09317 20.8132 3.6265C20.8132 4.15984 20.3865 4.59984 19.8532 4.59984Z" fill="#202020"/>
</svg>
