<svg width="29" height="29" viewBox="0 0 29 29" fill="none" xmlns="http://www.w3.org/2000/svg">
<path d="M3.69364 28.1937C2.89631 28.991 1.6036 28.991 0.806282 28.1937C0.00896263 27.3964 0.00896263 26.1037 0.806284 25.3064L11.6126 14.5L0.806282 3.69372C0.00896072 2.8964 0.00896072 1.60369 0.806282 0.806365C1.6036 0.00904404 2.89631 0.00904404 3.69363 0.806365L14.5 11.6127L25.3063 0.806364C26.1036 0.00904386 27.3963 0.00904398 28.1936 0.806365C28.991 1.60369 28.991 2.8964 28.1936 3.69372L17.3873 14.5L28.1936 25.3064C28.991 26.1037 28.991 27.3964 28.1936 28.1937C27.3963 28.991 26.1036 28.991 25.3063 28.1937L14.5 17.3874L3.69364 28.1937Z" fill="white"/>
</svg>
