<svg width="32" height="32" viewBox="0 0 32 32" fill="none" xmlns="http://www.w3.org/2000/svg">
<path d="M13.6665 13.3735C13.6665 14.0935 13.8665 14.2002 14.3198 14.3602L14.9998 14.6002V12.3335H14.5998C14.0932 12.3335 13.6665 12.8002 13.6665 13.3735Z" fill="#202020"/>
<path d="M17 19.6666H17.4C17.92 19.6666 18.3333 19.1999 18.3333 18.6266C18.3333 17.9066 18.1333 17.7999 17.68 17.6399L17 17.3999V19.6666Z" fill="#202020"/>
<path d="M26.1065 7.3065L23.3732 10.0398C23.1732 10.2398 22.9198 10.3332 22.6665 10.3332C22.4132 10.3332 22.1598 10.2398 21.9598 10.0398C21.5732 9.65317 21.5732 9.01317 21.9598 8.6265L24.6932 5.89317C22.3465 3.89317 19.3198 2.6665 15.9998 2.6665C8.63984 2.6665 2.6665 8.63984 2.6665 15.9998C2.6665 23.3598 8.63984 29.3332 15.9998 29.3332C23.3598 29.3332 29.3332 23.3598 29.3332 15.9998C29.3332 12.6798 28.1065 9.65317 26.1065 7.3065ZM18.3332 15.7598C19.1865 16.0665 20.3332 16.6798 20.3332 18.6398C20.3332 20.3065 19.0132 21.6798 17.3998 21.6798H16.9998V22.0132C16.9998 22.5598 16.5465 23.0132 15.9998 23.0132C15.4532 23.0132 14.9998 22.5598 14.9998 22.0132V21.6798H14.8932C13.1198 21.6798 11.6665 20.1865 11.6665 18.3465C11.6665 17.7865 12.1198 17.3332 12.6665 17.3332C13.2132 17.3332 13.6665 17.7865 13.6665 18.3332C13.6665 19.0665 14.2132 19.6665 14.8932 19.6665H14.9998V16.7065L13.6665 16.2398C12.8132 15.9332 11.6665 15.3198 11.6665 13.3598C11.6665 11.6932 12.9865 10.3198 14.5998 10.3198H14.9998V9.99984C14.9998 9.45317 15.4532 8.99984 15.9998 8.99984C16.5465 8.99984 16.9998 9.45317 16.9998 9.99984V10.3332H17.1065C18.8798 10.3332 20.3332 11.8265 20.3332 13.6665C20.3332 14.2132 19.8798 14.6665 19.3332 14.6665C18.7865 14.6665 18.3332 14.2132 18.3332 13.6665C18.3332 12.9332 17.7865 12.3332 17.1065 12.3332H16.9998V15.2932L18.3332 15.7598Z" fill="#202020"/>
<path d="M30.2533 2.27984C30.1467 2.03984 29.96 1.83984 29.7067 1.73317C29.5867 1.69317 29.4667 1.6665 29.3333 1.6665H24C23.4533 1.6665 23 2.11984 23 2.6665C23 3.21317 23.4533 3.6665 24 3.6665H26.92L24.6933 5.89317C25.2 6.33317 25.6667 6.79984 26.1067 7.3065L28.3333 5.07984V7.99984C28.3333 8.5465 28.7867 8.99984 29.3333 8.99984C29.88 8.99984 30.3333 8.5465 30.3333 7.99984V2.6665C30.3333 2.53317 30.3067 2.41317 30.2533 2.27984Z" fill="#202020"/>
</svg>
