<svg width="32" height="17" viewBox="0 0 32 17" fill="none" xmlns="http://www.w3.org/2000/svg">
<g clip-path="url(#clip0_281_2723)">
<g clip-path="url(#clip1_281_2723)">
<mask id="mask0_281_2723" style="mask-type:luminance" maskUnits="userSpaceOnUse" x="1" y="0" width="29" height="16">
<path d="M29.7576 0H1.26562V16H29.7576V0Z" fill="white"/>
</mask>
<g mask="url(#mask0_281_2723)">
<path d="M29.7588 5.9375V9.92654H28.3518V7.12909H26.9968V9.92654H25.5898V5.9375H29.7588Z" fill="#1C1637"/>
<path d="M24.9217 8.15873C24.9217 9.32034 23.9541 10.0867 22.6512 10.0867C21.3032 10.0867 20.3206 9.27536 20.3206 7.43638C20.3206 5.85859 21.3283 4.55795 22.8203 4.53294C23.4738 4.53294 24.8777 4.50195 24.8777 4.50195L24.2452 5.66248C24.2452 5.66248 23.1264 5.66451 22.9784 5.66451C22.3349 5.66451 21.7495 6.14878 21.6675 6.81108C22.0097 6.49089 22.464 6.30486 23.0154 6.30486C24.2072 6.30486 24.9217 7.03422 24.9217 8.15873ZM23.4777 8.15873C23.4777 7.63749 23.1425 7.33238 22.6581 7.33238C22.1588 7.33238 21.8246 7.64451 21.8246 8.16574C21.8246 8.65701 22.1598 9.01418 22.6581 9.01418C23.1795 9.01517 23.4777 8.62796 23.4777 8.15873Z" fill="#1C1637"/>
<path d="M19.205 8.72048C19.205 8.72048 18.8648 8.91162 18.3575 8.94861C17.773 8.96461 17.2537 8.6054 17.2537 7.96509C17.2537 7.34077 17.713 6.98262 18.3424 6.98262C18.7287 6.98262 19.2401 7.24471 19.2401 7.24471C19.2401 7.24471 19.6143 6.57344 19.8074 6.23922C19.4532 5.97614 18.9799 5.83203 18.4305 5.83203C17.0435 5.83203 15.9688 6.71652 15.9688 7.95814C15.9688 9.21569 16.9785 10.0792 18.4305 10.0532C18.8368 10.0382 19.3962 9.89908 19.7374 9.68499L19.205 8.72048Z" fill="#1C1637"/>
<path d="M1.26562 3.48242L3.21099 6.94618V9.0582L1.26963 12.5149L1.26562 3.48242Z" fill="#5B57A2"/>
<path d="M8.73047 5.68589L10.5517 4.57336L14.2793 4.57031L8.73047 7.95901V5.68589Z" fill="#D90751"/>
<path d="M8.71957 3.46272L8.7296 8.04803L6.78125 6.85442V0L8.71957 3.46272Z" fill="#FAB718"/>
<path d="M14.2784 4.5703L10.5509 4.57328L8.71957 3.46272L6.78125 0L14.2784 4.5703Z" fill="#ED6F26"/>
<path d="M8.7296 12.5353V10.3102L6.78125 9.14062V16.001L8.7296 12.5353Z" fill="#63B22F"/>
<path d="M10.5471 11.4314L3.21099 6.94618L1.26562 3.48242L14.2717 11.4274L10.5471 11.4314Z" fill="#1487C9"/>
<path d="M6.78125 15.998L8.7296 12.5323L10.5458 11.4298L14.2705 11.4258L6.78125 15.998Z" fill="#017F36"/>
<path d="M1.26953 12.5159L6.79739 9.14023L4.93808 8.00372L3.21089 9.05924L1.26953 12.5159Z" fill="#984995"/>
</g>
</g>
</g>
<defs>
<clipPath id="clip0_281_2723">
<rect width="31" height="17" fill="white" transform="translate(0.5)"/>
</clipPath>
<clipPath id="clip1_281_2723">
<rect width="48" height="26" fill="white" transform="translate(0.5)"/>
</clipPath>
</defs>
</svg>
